<svg width="64" height="64" viewBox="0 0 64 64" fill="none" xmlns="http://www.w3.org/2000/svg">
<path fill-rule="evenodd" clip-rule="evenodd" d="M32 60.8001C47.9058 60.8001 60.8001 47.9061 60.8001 32C60.8001 16.0942 47.9061 3.19993 32 3.19993C16.0942 3.19993 3.19993 16.0942 3.19993 32C3.19993 47.9058 16.0942 60.8001 32 60.8001ZM32 64C49.6729 64 64 49.6729 64 32C64 14.3268 49.6729 0 32 0C14.3268 0 0 14.3268 0 32C0 49.6729 14.3268 64 32 64Z" fill="#F3F3F3"/>
<path fill-rule="evenodd" clip-rule="evenodd" d="M40.3181 32L25.6026 22.1899V41.8106L40.3181 32ZM43.2911 30.1363C44.6212 31.0231 44.6212 32.9773 43.2911 33.8641L25.8849 45.4684C24.3964 46.4609 22.4023 45.3934 22.4023 43.6044V20.3961C22.4023 18.607 24.3964 17.5399 25.8849 18.5324L43.2911 30.1363Z" fill="#F3F3F3"/>
</svg>
