<svg width="24" height="25" viewBox="0 0 24 25" fill="none" xmlns="http://www.w3.org/2000/svg">
<path d="M22.5 7.11035C22.5 8.7131 21.876 10.2199 20.7428 11.3531L9.93527 22.2889C9.05627 23.1679 7.90202 23.6074 6.74852 23.6074C5.59652 23.6074 4.44452 23.1686 3.56777 22.2919C1.81352 20.5369 1.81352 17.6824 3.56777 15.9281L11.3753 8.16485C12.5475 7.0001 14.4105 6.96185 15.5303 8.0801C16.077 8.62685 16.365 9.36485 16.3418 10.1591C16.3185 10.9361 15.9983 11.6726 15.4395 12.2314L8.03027 19.6406C7.73702 19.9339 7.26302 19.9339 6.96977 19.6406C6.67652 19.3474 6.67652 18.8734 6.96977 18.5801L14.379 11.1709C14.6663 10.8836 14.8313 10.5086 14.8425 10.1149C14.8538 9.73835 14.721 9.39185 14.4698 9.1406C13.9335 8.6066 13.02 8.64485 12.4335 9.22835L4.62677 16.9901C3.45902 18.1586 3.45902 20.0621 4.62827 21.2313C5.79827 22.4006 7.70102 22.4006 8.87102 21.2313L19.6785 10.2956C20.532 9.4421 21 8.3126 21 7.11035C21 5.9081 20.532 4.7786 19.6823 3.92885C18.8318 3.07835 17.7023 2.61035 16.5 2.61035C15.2978 2.61035 14.1683 3.07835 13.3178 3.92885L2.77877 14.3929C2.48402 14.6846 2.01002 14.6831 1.71827 14.3884C1.42652 14.0944 1.42802 13.6204 1.72202 13.3279L12.2595 2.8661C13.3905 1.73435 14.8973 1.11035 16.5 1.11035C18.1028 1.11035 19.6095 1.73435 20.7428 2.86835C21.876 4.00085 22.5 5.5076 22.5 7.11035Z" fill="#DDDDDD"/>
</svg>
