<svg width="166" height="166" viewBox="0 0 166 166" fill="none" xmlns="http://www.w3.org/2000/svg">
<circle cx="83" cy="83" r="82.5" fill="#393939" stroke="#F3F3F3"/>
<path d="M71.3563 83.6561L78.3313 87.2186C78.5375 87.3217 78.9875 87.5749 79.2407 87.1624C79.475 86.778 79.0813 86.4686 78.8938 86.328L70.775 80.1124C70.1844 79.6436 70.0532 78.7342 70.5032 78.1155C70.9532 77.4686 71.8907 77.2811 72.5282 77.7217L80.7782 83.6374C80.9282 83.7499 81.3407 84.0499 81.6407 83.703C81.9407 83.3749 81.6125 82.9999 81.4813 82.8592L73.8219 74.778C73.2688 74.1686 73.3063 73.1561 74.0469 72.4717C74.6375 71.928 75.6782 71.9092 76.2407 72.4905L83.7688 80.328C83.8813 80.4405 84.2282 80.7967 84.5844 80.5342C84.95 80.253 84.6875 79.8405 84.6219 79.6811L79.9438 71.9186C79.625 71.4217 79.6157 70.3999 80.4782 69.8842C81.3688 69.3592 82.2219 69.8842 82.55 70.4374L87.7532 78.7999C88.4938 80.0374 89.6563 81.078 90.6875 81.5655C91.4844 81.9405 92.1032 81.4624 92.2063 80.628C92.3657 79.3342 92.6188 77.7311 93.0688 76.3811C93.5375 74.9655 95.1875 74.2624 96.5938 74.9749L96.1157 76.8592C95.6375 78.7717 95.5813 80.778 95.9094 82.728C96.1907 84.3592 96.4719 86.4592 96.4344 88.3249C96.3875 91.1374 94.4938 92.3655 92.7969 93.8936C85.475 100.54 80.15 91.503 77.5532 90.2186L70.0063 86.028C69.3688 85.6624 69.2282 84.8092 69.6032 84.1905C69.9688 83.5905 70.7188 83.328 71.3563 83.6561Z" fill="#FFBDA8"/>
<path d="M94.4 74.9372C94.625 74.9841 94.8406 75.0497 95.0563 75.1528L94.5781 77.0372C94.1 78.9497 94.0438 80.956 94.3719 82.906C94.6531 84.5372 94.9344 86.6372 94.8969 88.5028C94.85 91.3153 92.9563 92.5435 91.2594 94.0716C89.8719 95.3278 88.5594 96.0216 87.3219 96.3122C88.9906 96.3403 90.8188 95.6935 92.7875 93.9028C94.4844 92.3747 96.3688 91.1466 96.425 88.3341C96.4625 86.4591 96.1813 84.3591 95.9 82.7372C95.5625 80.7872 95.6281 78.781 96.1063 76.8685L96.5844 74.9841C95.8625 74.6185 95.0656 74.6372 94.4 74.9372Z" fill="#FFBDA8"/>
<path d="M94.3813 81.9778C94.6626 83.609 94.9438 85.709 94.9063 87.5746C94.8594 90.3871 92.9657 91.6153 91.2688 93.1434C88.3438 95.7965 85.7376 95.9465 83.4969 95.0934C86.0469 96.6403 89.1782 97.1934 92.7969 93.9028C94.4938 92.3746 96.3782 91.1465 96.4344 88.334C96.4719 86.459 96.1907 84.359 95.9094 82.7371C95.5813 80.7871 94.0438 80.0278 94.3813 81.9778Z" fill="#FFBDA8"/>
<path d="M74.7031 72.6591L83.0469 81.256C83.1594 81.3685 83.5062 81.7247 83.8625 81.4622C84.2281 81.181 83.9656 80.7685 83.9 80.6091L83.5344 79.9997L76.2406 72.4997C75.725 71.9653 74.825 71.9372 74.225 72.3403C74.4031 72.4153 74.5625 72.5185 74.7031 72.6591Z" fill="#FFBDA8"/>
<path d="M70.9156 77.9469L80.0656 84.5001C80.2344 84.6219 80.6938 84.9501 81.0219 84.5657C81.3125 84.2563 81.0781 83.9001 80.9188 83.7126L72.6125 77.7594C72.0594 77.3751 71.2719 77.4313 70.7281 77.8438C70.7938 77.8813 70.8594 77.9094 70.9156 77.9469Z" fill="#FFBDA8"/>
<path d="M81.0125 70.6061L86.2156 78.9686C86.9563 80.2061 88.1188 81.2467 89.15 81.7342C89.7031 81.9967 90.1719 81.828 90.4438 81.4249C89.4782 80.8999 88.4469 79.9436 87.7531 78.7999L82.55 70.4374C82.2219 69.8842 81.3688 69.3592 80.4781 69.8842C80.4219 69.9124 80.3844 69.9499 80.3375 69.9874C80.6281 70.1467 80.8719 70.3717 81.0125 70.6061Z" fill="#FFBDA8"/>
<path d="M77.8062 88.0907C78.0406 88.2126 78.575 88.5032 78.8656 88.0251C78.9781 87.8376 78.95 87.6782 78.8844 87.5376L71.4406 83.7314C70.85 83.4314 70.1937 83.5626 69.7344 83.9657L77.8062 88.0907Z" fill="#FFBDA8"/>
<path d="M87.4532 96.7909C84.0782 96.7909 81.3313 94.1847 79.4188 92.3753C78.5938 91.5878 77.8719 90.9128 77.3469 90.6503L69.7813 86.4503C69.3876 86.2253 69.1063 85.8597 68.9938 85.4097C68.8626 84.9222 68.9469 84.3972 69.2001 83.9566C69.6969 83.1128 70.7094 82.8034 71.5626 83.2347L78.5376 86.7972C78.6126 86.8347 78.7907 86.9191 78.8469 86.9191C78.8188 86.8909 78.7438 86.8159 78.6032 86.7034L70.4844 80.4878C69.6876 79.8503 69.5282 78.6691 70.1094 77.8441C70.4001 77.4316 70.8594 77.1316 71.3844 77.0472C71.8907 76.9534 72.3876 77.0659 72.7813 77.3472L81.0407 83.2628C81.2094 83.3941 81.2751 83.4034 81.2938 83.4034C81.2844 83.3941 81.2657 83.3191 81.1438 83.1878L73.4751 75.1066C72.7251 74.2628 72.8282 72.9597 73.7188 72.1347C74.5157 71.4128 75.8469 71.4316 76.5688 72.1722L84.0969 80.0097C84.2282 80.1409 84.2844 80.1597 84.3126 80.1691C84.3032 80.1222 84.2376 79.9909 84.2188 79.9441L79.5313 72.1722C79.2782 71.7878 79.1938 71.2253 79.3157 70.7191C79.4376 70.2034 79.7563 69.7816 80.2251 69.5003C81.2844 68.8722 82.4376 69.3691 82.9438 70.2128L88.1376 78.5753C88.7938 79.6722 89.8719 80.6847 90.8751 81.1722C91.0157 81.2378 91.2313 81.2941 91.4001 81.2003C91.5688 81.1066 91.6907 80.8909 91.7282 80.5909C91.8782 79.4284 92.1219 77.7034 92.6094 76.2597C92.8719 75.4534 93.4813 74.8066 94.2782 74.4784C95.0844 74.1503 96.0032 74.1878 96.8001 74.5816C96.9969 74.6847 97.1001 74.9003 97.0438 75.1159L96.5657 77.0003C96.1063 78.8378 96.0407 80.7503 96.3688 82.6722C96.7532 84.8753 96.9313 86.7878 96.9032 88.3628C96.8563 91.0159 95.2907 92.3753 93.7719 93.6972C93.5563 93.8847 93.3313 94.0816 93.1157 94.2784C91.0907 96.0972 89.1876 96.7909 87.4532 96.7909ZM70.7657 83.9847C70.4657 83.9847 70.1844 84.1441 70.0157 84.4347V84.4441C69.8844 84.6597 69.8469 84.9316 69.9032 85.1753C69.9407 85.3159 70.0344 85.5128 70.2407 85.6347L77.7782 89.8253C78.4157 90.1347 79.1751 90.8566 80.0563 91.7003C83.0469 94.5316 87.1344 98.4128 92.4782 93.5659C92.7032 93.3597 92.9282 93.1722 93.1532 92.9753C94.6344 91.6816 95.9188 90.5753 95.9657 88.3347C95.9938 86.8253 95.8157 84.9691 95.4501 82.8222C95.0938 80.7691 95.1688 78.7253 95.6563 76.7566L96.0313 75.2659C95.5719 75.1253 95.0844 75.1441 94.6344 75.3316C94.0907 75.5566 93.6782 75.9972 93.5001 76.5409C93.0407 77.9191 92.7969 79.5691 92.6563 80.6941C92.5813 81.2847 92.2907 81.7628 91.8594 82.0066C91.4563 82.2316 90.9594 82.2316 90.4813 82.0066C89.3001 81.4441 88.1001 80.3097 87.3501 79.0534L82.1469 70.6909C81.9969 70.4472 81.4251 69.8659 80.7126 70.2972C80.4594 70.4472 80.3001 70.6628 80.2344 70.9253C80.1594 71.2253 80.2344 71.5159 80.3282 71.6659L85.0157 79.4378C85.4282 80.2534 85.1563 80.6753 84.8657 80.9003C84.6126 81.0878 84.0969 81.3128 83.4407 80.6659L75.9032 72.8191C75.5282 72.4441 74.7782 72.4441 74.3657 72.8191C73.7938 73.3534 73.8126 74.0753 74.1688 74.4691L81.8188 82.5316C82.3907 83.1316 82.2782 83.6941 81.9782 84.0222C81.8469 84.1722 81.3313 84.6503 80.4876 84.0128L72.2376 78.1066C72.0501 77.9753 71.8063 77.9191 71.5438 77.9659C71.2719 78.0128 71.0282 78.1628 70.8782 78.3784C70.5782 78.8003 70.6626 79.4284 71.0563 79.7472L79.1657 85.9534C79.9157 86.5441 79.8313 87.0691 79.6251 87.3972C79.4094 87.7534 78.9688 88.0816 78.1157 87.6316L71.1313 84.0597C71.0188 84.0128 70.8969 83.9847 70.7657 83.9847Z" fill="#393939"/>
<path d="M75.3781 95.0566C72.6406 95.0566 70.1 93.5003 68.8625 91.0347C68.75 90.8097 68.8438 90.5284 69.0781 90.4066C69.3125 90.2941 69.5938 90.3878 69.7063 90.6128C70.8125 92.8066 73.1094 94.1847 75.5656 94.1097C75.8281 94.1191 76.0438 94.3066 76.0438 94.5691C76.0531 94.8316 75.8469 95.0472 75.5844 95.0472C75.5188 95.0566 75.4531 95.0566 75.3781 95.0566Z" fill="#393939"/>
<path d="M75.3313 92.7314C75.3125 92.7314 75.3032 92.7314 75.2844 92.7314C73.4844 92.5533 71.8813 91.5033 71.0094 89.9189C70.8875 89.6939 70.9625 89.4033 71.1969 89.2814C71.4219 89.1595 71.7125 89.2345 71.8344 89.4689C72.5563 90.7814 73.8875 91.6533 75.3782 91.8033C75.6313 91.8314 75.8282 92.0564 75.8 92.3189C75.7719 92.5533 75.5657 92.7314 75.3313 92.7314Z" fill="#393939"/>
<path d="M91.0906 75.6689C90.8563 75.6689 90.65 75.4907 90.6219 75.247C90.3594 72.8095 88.6813 70.7189 86.3563 69.922C86.1125 69.8376 85.9813 69.5751 86.0656 69.3314C86.15 69.0876 86.4125 68.9564 86.6563 69.0407C89.3188 69.9501 91.2406 72.3501 91.55 75.1532C91.5781 75.4064 91.3906 75.6407 91.1375 75.6689C91.1281 75.6689 91.1094 75.6689 91.0906 75.6689Z" fill="#393939"/>
<path d="M88.8125 76.1376C88.5875 76.1376 88.3812 75.9688 88.3531 75.7345C88.1281 74.2532 87.1906 72.9688 85.8406 72.3126C85.6062 72.2001 85.5125 71.9188 85.625 71.6845C85.7375 71.4501 86.0187 71.3563 86.2531 71.4688C87.875 72.2657 89.0093 73.8032 89.2812 75.5938C89.3187 75.847 89.1406 76.0907 88.8875 76.1282C88.8593 76.1282 88.8406 76.1376 88.8125 76.1376Z" fill="#393939"/>
<path d="M21.1398 72.6114C22.1966 73.5157 23.4788 74.1551 25.0468 74.5445C26.6147 74.9339 28.0463 74.9685 29.4092 74.6331C30.7722 74.2977 31.9008 73.6152 32.848 72.631C33.7951 71.6467 34.4252 70.3912 34.8061 68.8491C35.2392 67.0953 35.1227 65.4939 34.4264 64.0373C33.7301 62.5806 32.6202 61.5027 31.1269 60.8109L30.5071 63.3206C31.4349 63.8398 32.0919 64.5486 32.4405 65.4696C32.7891 66.3905 32.829 67.3953 32.5601 68.4838C32.2017 69.9352 31.4656 70.9719 30.3444 71.6241C29.2158 72.3065 27.8976 72.4605 26.3825 72.1163L26.1714 72.0639L29.1288 60.09C28.6538 59.9399 28.3296 59.8273 28.0884 59.7674C26.5959 59.4609 25.2172 59.4715 23.9522 59.7992C22.7098 60.1645 21.6565 60.8015 20.7845 61.7403C19.9428 62.6865 19.3276 63.8816 18.9841 65.2725C18.6256 66.7239 18.6436 68.0762 19.0382 69.3295C19.4252 70.613 20.1132 71.7146 21.1398 72.6114ZM26.4585 62.0904L24.1584 71.4035C22.9821 70.983 22.1066 70.2521 21.5466 69.1502C21.0094 68.0861 20.8713 66.9607 21.1626 65.7815C21.4837 64.4813 22.1144 63.4826 23.0471 62.8157C23.9799 62.1488 25.1321 61.8894 26.4585 62.0904Z" fill="#F3F3F3"/>
<path d="M20.5095 89.6843C21.7648 90.281 23.1689 90.563 24.7839 90.529C26.3989 90.495 27.7899 90.1541 29.0185 89.4739C30.2471 88.7937 31.1592 87.8398 31.8177 86.6419C32.4762 85.4441 32.758 84.0672 32.7248 82.4788C32.687 80.6725 32.1581 79.1569 31.1071 77.9327C30.0561 76.7086 28.7043 75.9581 27.0828 75.6807L27.137 78.2656C28.1677 78.5243 28.9863 79.0368 29.5623 79.8347C30.1383 80.6327 30.438 81.5923 30.4615 82.7135C30.4928 84.2084 30.0518 85.4016 29.139 86.3244C28.2268 87.2784 26.9943 87.7717 25.4421 87.8356L25.2247 87.8401L24.9664 75.5072C24.4688 75.4865 24.1265 75.4625 23.8781 75.4678C22.3576 75.5621 21.0293 75.9328 19.8932 76.5799C18.7889 77.2575 17.9375 78.1478 17.3399 79.2821C16.7733 80.4157 16.4901 81.7303 16.5201 83.1629C16.5514 84.6578 16.9204 85.9586 17.6272 87.0654C18.3346 88.2034 19.2852 89.0869 20.5095 89.6843ZM22.9086 78.1366L23.1095 87.7289C21.8646 87.6305 20.8293 87.1538 20.0023 86.2365C19.2069 85.3496 18.781 84.2992 18.7556 83.0846C18.7275 81.7454 19.0767 80.6164 19.8038 79.7287C20.5309 78.841 21.5758 78.2893 22.9086 78.1366Z" fill="#F3F3F3"/>
<path d="M19.4725 102.888L20.1843 105.664L22.4407 105.082L21.7289 102.306L34.8159 98.9313L34.1815 96.4574L21.0944 99.8325L19.9803 95.4881L17.7239 96.07L18.8381 100.414L17.063 100.872C16.4613 101.027 16.0092 101.015 15.6688 100.814C15.3662 100.634 15.0997 100.221 14.945 99.6172L14.2564 96.9321L12 97.514L12.7273 100.35C13.0909 101.768 13.6849 102.708 14.5093 103.171C15.3337 103.634 16.4038 103.68 17.7577 103.33L19.4725 102.888Z" fill="#F3F3F3"/>
<path d="M24.5391 115.414L25.7806 117.995L27.8791 116.98L26.6376 114.399L38.8089 108.512L37.7023 106.212L25.5311 112.098L23.5878 108.058L21.4893 109.073L23.4326 113.113L21.7817 113.911C21.2221 114.182 20.7764 114.259 20.4032 114.128C20.0714 114.012 19.7291 113.659 19.4592 113.098L18.2582 110.601L16.1597 111.616L17.4282 114.253C18.0624 115.572 18.829 116.377 19.7279 116.668C20.6269 116.96 21.6852 116.794 22.9443 116.185L24.5391 115.414Z" fill="#F3F3F3"/>
<path d="M45.966 119.984C45.7324 118.636 45.1172 117.365 44.1202 116.171C43.1433 115 42.0039 114.169 40.7222 113.701C39.4405 113.234 38.1277 113.117 36.7362 113.391C35.3885 113.669 34.0973 114.306 32.8586 115.346C31.6437 116.366 30.7911 117.528 30.257 118.829C29.7666 120.135 29.6263 121.471 29.8599 122.819C30.0935 124.166 30.7088 125.437 31.6857 126.608C32.6827 127.802 33.822 128.633 35.1037 129.101C36.3854 129.569 37.722 129.666 39.0697 129.388C40.4612 129.113 41.7325 128.453 42.9474 127.433C44.1861 126.393 45.0587 125.255 45.549 123.949C46.0832 122.648 46.1996 121.331 45.966 119.984ZM40.055 116.008C40.9546 116.309 41.7234 116.842 42.3813 117.63C43.0592 118.443 43.4469 119.295 43.5841 120.236C43.7214 121.177 43.5762 122.071 43.1645 122.985C42.7767 123.88 42.1301 124.707 41.2726 125.426C40.415 126.146 39.5132 126.619 38.5433 126.864C37.5971 127.09 36.6704 127.096 35.7709 126.794C34.8713 126.493 34.1026 125.96 33.4247 125.148C32.7667 124.36 32.379 123.507 32.2418 122.566C32.1045 121.625 32.2536 120.688 32.6415 119.793C33.0531 118.879 33.6758 118.072 34.5334 117.352C35.3909 116.633 36.3166 116.14 37.2627 115.915C38.2327 115.669 39.1555 115.707 40.055 116.008Z" fill="#F3F3F3"/>
<path d="M49.4411 124.47C47.8809 124.617 46.4554 125.344 45.1821 126.624L47.2941 128.052C48.0906 127.314 48.9716 126.895 49.9455 126.84C50.9625 126.776 51.9172 127.083 52.8702 127.728C54.1322 128.581 54.8671 129.717 55.0319 131.143C55.1967 132.57 54.7841 134.019 53.8115 135.465C52.8562 136.886 51.6884 137.787 50.3078 138.168C48.9447 138.524 47.6018 138.292 46.3398 137.439C45.4126 136.812 44.8137 136.031 44.474 135.088C44.1775 134.136 44.1912 133.168 44.541 132.202L42.4033 130.757C41.6882 132.377 41.5679 133.949 42.0166 135.455C42.4653 136.96 43.4494 138.227 44.9947 139.272C46.2825 140.143 47.581 140.608 48.9418 140.701C50.3026 140.795 51.5963 140.543 52.8145 139.901C54.05 139.234 55.0892 138.246 55.9749 136.928C56.8781 135.585 57.4021 134.249 57.5559 132.85C57.7355 131.469 57.5097 130.189 56.9131 128.959C56.3422 127.746 55.4258 126.713 54.138 125.843C52.5927 124.798 51.0271 124.34 49.4411 124.47Z" fill="#F3F3F3"/>
<path d="M72.7979 150.925L75.5905 151.535L76.0859 149.252L73.2934 148.642L76.167 135.402L73.678 134.858L70.8044 148.099L66.4335 147.145L65.938 149.428L70.3089 150.382L69.9192 152.178C69.7871 152.786 69.5732 153.186 69.2405 153.4C68.9449 153.591 68.4565 153.644 67.8494 153.511L65.148 152.922L64.6525 155.205L67.5058 155.827C68.9324 156.139 70.0371 156.029 70.8198 155.499C71.6026 154.968 72.1241 154.03 72.4214 152.66L72.7979 150.925Z" fill="#F3F3F3"/>
<path d="M89.5873 136.815C88.3848 136.169 87.0074 135.872 85.4551 135.924C83.9338 135.974 82.5791 136.362 81.422 137.087C80.2649 137.811 79.3645 138.776 78.7227 140.044C78.111 141.28 77.8159 142.693 77.8696 144.311C77.9222 145.899 78.3102 147.289 79.0034 148.513C79.7267 149.704 80.6901 150.638 81.8926 151.284C83.0951 151.929 84.4725 152.226 85.9938 152.175C87.5461 152.124 88.9009 151.736 90.0579 151.011C91.215 150.287 92.1144 149.291 92.7262 148.055C93.3679 146.787 93.6319 145.376 93.5793 143.788C93.5256 142.169 93.1687 140.778 92.4454 139.587C91.7522 138.363 90.7898 137.46 89.5873 136.815ZM82.823 139.035C83.6138 138.51 84.5059 138.231 85.5304 138.197C86.586 138.161 87.4946 138.38 88.3184 138.852C89.1421 139.323 89.7547 139.988 90.2193 140.876C90.6828 141.734 90.9342 142.754 90.9714 143.875C91.0085 144.996 90.8242 145.999 90.4195 146.916C90.0137 147.803 89.4476 148.538 88.6569 149.063C87.8662 149.588 86.9741 149.868 85.9185 149.903C84.8939 149.937 83.9853 149.718 83.1616 149.247C82.3378 148.775 81.6932 148.08 81.2296 147.223C80.765 146.334 80.5147 145.345 80.4775 144.225C80.4403 143.104 80.6236 142.069 81.0294 141.183C81.4341 140.265 82.0323 139.56 82.823 139.035Z" fill="#F3F3F3"/>
<path d="M110.88 146.305C112.187 146.327 113.502 146.028 114.798 145.353C116.838 144.291 118.035 142.615 118.363 140.408L119.84 142.517L121.797 141.498L111.634 121.869L109.373 123.046L113.353 130.732C112.539 130.243 111.605 129.993 110.563 130.008C109.549 130.01 108.484 130.319 107.326 130.922C106.057 131.582 105.057 132.489 104.324 133.643C103.619 134.782 103.249 136.028 103.243 137.435C103.222 138.815 103.563 140.217 104.307 141.654C105.08 143.147 106.042 144.261 107.193 145.066C108.331 145.842 109.56 146.255 110.88 146.305ZM105.972 136.014C106.326 134.601 107.213 133.543 108.591 132.825C109.501 132.351 110.415 132.156 111.361 132.225C112.307 132.295 113.145 132.63 113.946 133.231C114.748 133.832 115.413 134.644 115.943 135.666C116.458 136.662 116.723 137.647 116.738 138.622C116.753 139.597 116.544 140.478 116.056 141.293C115.568 142.109 114.883 142.746 113.973 143.22C112.595 143.938 111.207 144.029 109.851 143.506C108.496 142.984 107.41 141.969 106.623 140.449C105.821 138.9 105.618 137.427 105.972 136.014Z" fill="#F3F3F3"/>
<path d="M127.39 137.72L129.208 135.931L123.658 130.263C122.395 128.974 121.726 127.668 121.584 126.367C121.421 125.044 121.893 123.881 122.912 122.877C123.865 121.938 124.88 121.507 125.999 121.627C127.118 121.748 128.232 122.397 129.386 123.575L135.458 129.776L137.276 127.986L131.095 121.674C129.353 119.896 127.67 118.977 126.045 118.962C124.42 118.903 122.942 119.573 121.59 120.904C120.039 122.432 119.364 124.144 119.588 126.106L117.864 124.835L116.29 126.385L127.39 137.72Z" fill="#F3F3F3"/>
<path d="M128.509 115.822C128.779 117.37 129.615 118.737 130.989 119.908L132.241 117.684C131.443 116.946 130.957 116.099 130.825 115.13C130.681 114.118 130.911 113.139 131.476 112.136C132.224 110.806 133.295 109.982 134.7 109.704C136.105 109.426 137.578 109.724 139.093 110.581C140.581 111.423 141.569 112.519 142.058 113.869C142.519 115.204 142.395 116.564 141.647 117.894C141.097 118.87 140.369 119.531 139.458 119.945C138.535 120.317 137.572 120.38 136.584 120.107L135.317 122.359C136.984 122.945 138.556 122.94 140.018 122.373C141.479 121.805 142.66 120.72 143.576 119.093C144.34 117.736 144.699 116.402 144.684 115.034C144.669 113.666 144.316 112.393 143.581 111.226C142.82 110.044 141.755 109.083 140.376 108.302C138.969 107.506 137.599 107.088 136.196 107.045C134.809 106.975 133.554 107.303 132.379 107.997C131.219 108.663 130.265 109.661 129.501 111.018C128.585 112.645 128.254 114.247 128.509 115.822Z" fill="#F3F3F3"/>
<path d="M138.477 98.7522L138.556 97.9774C138.628 97.2647 139.034 96.9618 139.807 97.041L146.605 97.7377C148.429 97.9246 149.876 97.5093 150.979 96.495C152.081 95.4807 152.734 93.9819 152.939 91.9676C153.135 90.0463 152.86 88.4525 152.115 87.1862C151.369 85.92 150.234 85.1147 148.707 84.7704L148.448 87.3115C149.236 87.5488 149.81 88.046 150.232 88.8094C150.654 89.5728 150.809 90.4969 150.696 91.6125C150.569 92.8521 150.162 93.7811 149.537 94.4058C148.88 95.0274 148.039 95.3169 147.019 95.2124L145.937 95.1016L146.411 90.4532C146.622 88.3769 146.351 86.7521 145.627 85.582C144.872 84.4087 143.721 83.7583 142.145 83.5968C140.723 83.4511 139.526 83.8608 138.615 84.8321C137.673 85.8002 137.126 87.1845 136.946 88.9509C136.713 91.2441 137.398 93.0992 139.033 94.5193C138.23 94.437 137.586 94.6215 137.14 95.0142C136.664 95.4037 136.405 96.0975 136.301 97.1201L136.159 98.5146L138.477 98.7522ZM143.805 94.8831L143.032 94.8039C141.673 94.6645 140.638 94.0889 139.923 93.1388C139.211 92.1578 138.933 90.908 139.091 89.3586C139.198 88.3049 139.5 87.4904 140.057 86.9213C140.584 86.349 141.234 86.1024 142.037 86.1848C143.768 86.3621 144.544 87.6316 144.304 89.9867L143.805 94.8831Z" fill="#F3F3F3"/>
<path d="M145.047 59.1893C143.674 58.9764 142.248 59.1077 140.71 59.6022C139.172 60.0967 137.935 60.8213 136.951 61.8246C135.967 62.8279 135.364 64.0031 135.074 65.3395C134.783 66.676 134.905 68.0762 135.388 69.5891C135.938 71.3096 136.876 72.611 138.232 73.4837C139.587 74.3564 141.096 74.6891 142.73 74.4913L141.942 72.0292C140.881 72.076 139.951 71.819 139.172 71.2189C138.393 70.6188 137.832 69.7848 137.491 68.7169C137.036 67.2931 137.119 66.0232 137.732 64.8777C138.335 63.7025 139.376 62.8771 140.845 62.372L141.052 62.3054L144.807 74.0523C145.29 73.9298 145.625 73.8549 145.862 73.7788C147.292 73.2535 148.46 72.5183 149.365 71.5731C150.231 70.6079 150.793 69.511 151.044 68.2529C151.264 67.0044 151.162 65.6634 150.726 64.2988C150.27 62.875 149.547 61.7337 148.554 60.875C147.553 59.9867 146.39 59.4117 145.047 59.1893ZM146.032 70.9435L143.111 61.8071C144.332 61.5454 145.46 61.7062 146.514 62.3488C147.528 62.9714 148.235 63.8563 148.605 65.0132C149.013 66.2887 148.999 67.4707 148.555 68.5296C148.11 69.5884 147.266 70.416 146.032 70.9435Z" fill="#F3F3F3"/>
<path d="M137.445 39.0608L127.593 52.8516L129.306 55.4127L145.768 51.5044L144.28 49.2795L130.875 52.5572L138.968 41.3373L137.445 39.0608Z" fill="#F3F3F3"/>
<path d="M127.633 47.7547L127.039 47.2534C126.492 46.7922 126.471 46.2855 126.97 45.6896L131.37 40.4453C132.55 39.0389 133.022 37.6053 132.806 36.1205C132.59 34.6358 131.722 33.2517 130.176 31.9483C128.703 30.7049 127.234 30.036 125.771 29.9414C124.308 29.8468 123.005 30.3353 121.862 31.4069L123.811 33.0513C124.45 32.5318 125.183 32.3358 126.05 32.4156C126.916 32.4954 127.766 32.8863 128.622 33.6082C129.572 34.4103 130.109 35.2704 130.272 36.1406C130.415 37.0347 130.181 37.8951 129.521 38.6818L128.821 39.5161L125.255 36.508C123.662 35.1645 122.17 34.4755 120.798 34.4172C119.406 34.3828 118.222 34.9715 117.202 36.1873C116.282 37.2838 115.947 38.5067 116.235 39.8083C116.503 41.1337 117.337 42.3661 118.692 43.5091C120.451 44.9931 122.366 45.4687 124.456 44.9121C123.936 45.5318 123.727 46.169 123.8 46.7596C123.852 47.3741 124.279 47.9784 125.064 48.6401L126.133 49.5425L127.633 47.7547ZM127.441 41.1609L126.941 41.7568C126.061 42.8056 125.005 43.3392 123.819 43.3974C122.61 43.4357 121.423 42.9635 120.234 41.9608C119.426 41.279 118.924 40.5707 118.769 39.7882C118.593 39.0296 118.755 38.3523 119.275 37.7325C120.395 36.3976 121.878 36.4684 123.685 37.9924L127.441 41.1609Z" fill="#F3F3F3"/>
<path d="M117.968 25.0252C117.357 23.4908 116.178 22.3167 114.418 21.5313C113.283 21.0245 112.205 20.85 111.208 20.9506C110.198 21.0797 109.296 21.4271 108.514 21.9643L111.975 14.1667L109.648 13.1279L100.805 33.0489L103.132 34.0876L106.353 26.8307C107.073 25.2086 108.011 24.0926 109.235 23.4797C110.447 22.8953 111.711 22.8802 113.074 23.4883C114.322 24.0457 115.139 24.8875 115.466 25.9884C115.793 27.0893 115.629 28.3796 114.972 29.8595L111.447 37.7994L113.774 38.8382L117.362 30.7559C118.373 28.4793 118.566 26.588 117.968 25.0252Z" fill="#F3F3F3"/>
<path d="M83.0369 25.7166L80.4897 25.7006C80.479 27.4139 81.1229 28.7574 82.3596 29.6997C83.5961 30.6732 85.2706 31.151 87.3519 31.1641C88.5013 31.1713 89.5586 30.991 90.5241 30.5921C91.4583 30.2242 92.2384 29.6683 92.8022 28.9242C93.3658 28.2113 93.6507 27.372 93.6567 26.4064C93.6635 25.3161 93.3894 24.4421 92.8343 23.7845C92.2791 23.158 91.5675 22.6862 90.6686 22.3691C89.7695 22.083 88.6216 21.8578 87.2559 21.6623C86.2627 21.5314 85.5177 21.4333 85.0215 21.3056C84.5251 21.209 84.1535 21.0198 83.8448 20.7063C83.5359 20.424 83.3831 20.0181 83.3866 19.4574C83.3911 18.7409 83.7054 18.151 84.3915 17.7192C85.0466 17.2872 85.9179 17.0435 87.0052 17.0503C88.0613 17.0569 88.9293 17.3428 89.6405 17.8768C90.3204 18.4418 90.7199 19.1296 90.8391 19.9403L93.3863 19.9563C93.2722 18.3357 92.6276 17.0856 91.4527 16.206C90.2777 15.3264 88.7894 14.8809 86.9256 14.8692C85.7762 14.862 84.7498 15.0736 83.8464 15.4729C82.912 15.872 82.194 16.4282 81.6615 17.1414C81.1287 17.8856 80.8752 18.694 80.8693 19.6285C80.8627 20.6876 81.1061 21.4991 81.6616 22.0944C82.186 22.6896 82.8977 23.1302 83.7659 23.3848C84.634 23.6707 85.7509 23.8957 87.1167 24.0601C88.0789 24.1907 88.8236 24.32 89.3509 24.4479C89.8782 24.5758 90.3116 24.8278 90.6513 25.1414C90.9598 25.486 91.1433 25.9544 91.1394 26.5774C91.1347 27.3251 90.7583 27.9146 90.0721 28.3464C89.386 28.7782 88.4838 28.9906 87.3655 28.9835C86.0919 28.9755 85.0686 28.6888 84.2648 28.0607C83.4609 27.4638 83.0619 26.6825 83.0369 25.7166Z" fill="#F3F3F3"/>
<path d="M69.3202 11.6006C68.7663 11.0811 68.1246 10.8986 67.3951 11.0531C66.7569 11.1883 66.3091 11.4741 66.015 11.8866C65.7209 12.2992 65.6588 12.758 65.7615 13.2457C65.877 13.7943 66.082 14.1648 66.4437 14.3747C66.8118 14.6151 67.2326 14.6534 67.7189 14.5504C68.1444 14.4603 68.4835 14.2611 68.6753 13.9658C68.6946 14.0572 68.7506 14.1727 68.7891 14.3556C68.9239 14.9956 68.8267 15.5893 68.5343 16.1606C68.2115 16.7384 67.631 17.1479 66.7496 17.3345L67.0512 18.767C68.3822 18.4533 69.3321 17.8383 69.9379 16.9459C70.5437 16.0535 70.727 14.964 70.451 13.6534C70.2712 12.8 69.874 12.12 69.3202 11.6006Z" fill="#F3F3F3"/>
<path d="M58.5578 22.9403L62.1191 31.6437C62.6615 32.9693 63.3498 33.8309 64.1723 34.1996C65.0065 34.5971 66.1302 34.4715 67.5097 33.9038L70.2112 32.7923L69.3267 30.6309L66.769 31.6833C66.1655 31.9316 65.6872 31.9937 65.3512 31.829C65.0151 31.6642 64.7233 31.2792 64.4639 30.6452L60.9144 21.9706L64.6217 20.4452L63.7373 18.2838L60.03 19.8092L58.3437 15.6881L55.9871 16.6578L57.6734 20.7789L55.0294 21.8668L55.9139 24.0282L58.5578 22.9403Z" fill="#F3F3F3"/>
<path d="M44.3856 32.9235C44.5795 34.303 45.1173 35.6339 46.0343 36.9674C46.9513 38.3009 48.0006 39.2781 49.243 39.9326C50.4854 40.587 51.7816 40.8259 53.1414 40.7181C54.5011 40.6103 55.8027 40.0887 57.107 39.1868C58.5902 38.1612 59.5612 36.8843 60.0022 35.3307C60.4432 33.7771 60.3243 32.2323 59.663 30.7219L57.5404 32.1896C57.8922 33.1951 57.9159 34.1625 57.5684 35.0838C57.2209 36.0052 56.5869 36.7842 55.6662 37.4208C54.4387 38.2696 53.2024 38.5569 51.9317 38.3004C50.6355 38.0616 49.5465 37.301 48.6392 36.0365L48.5158 35.8569L58.6429 28.8543C58.3863 28.4263 58.2179 28.1265 58.0769 27.9213C57.1616 26.7001 56.122 25.7919 54.9581 25.1967C53.7862 24.6448 52.5764 24.4219 51.3031 24.5456C50.0474 24.695 48.7969 25.1812 47.6205 25.9947C46.393 26.8435 45.5129 27.8683 44.9802 29.0691C44.4219 30.2876 44.2093 31.5697 44.3856 32.9235ZM55.3212 28.5781L47.4445 34.0247C46.8414 32.9281 46.6687 31.7989 46.9774 30.6016C47.2782 29.4477 47.9184 28.5131 48.9158 27.8234C50.0155 27.063 51.1477 26.7342 52.287 26.8545C53.4263 26.9748 54.4606 27.5461 55.3212 28.5781Z" fill="#F3F3F3"/>
<path d="M38.8817 57.4556L46.5468 47.4122L44.5733 45.8976L38.5508 53.7889L23.2561 42.051L21.6136 44.2032L38.8817 57.4556Z" fill="#F3F3F3"/>
</svg>
