<svg width="126" height="121" viewBox="0 0 126 121" fill="none" xmlns="http://www.w3.org/2000/svg">
<g clip-path="url(#clip0_799_3878)">
<path d="M57.5027 102.319L55.6071 101.708L53.7222 101.026L51.8645 100.27L50.0242 99.4263L48.2111 98.51L46.4259 97.5253L44.6697 96.465L42.9459 95.3356L41.2551 94.1533L39.6077 92.8975L38.0043 91.5847L36.4402 90.2154L34.9201 88.789L33.4538 87.3085L32.0357 85.7817L30.6696 84.2034L29.3626 82.5745L28.1164 80.9043L26.9245 79.1963L25.8014 77.4524L24.7406 75.6762L23.7505 73.8616L22.8334 72.0221L21.9859 70.1514L21.2197 68.2498L20.5364 66.3262L19.9288 64.3796L19.4076 62.4176L18.9892 60.4396L18.6453 58.4458L18.3996 56.4367L18.2555 54.4189L18.2104 52.3903L18.2639 50.3629L18.426 48.3395L18.6913 46.3163L19.0689 44.2918L19.5665 42.2833L20.1708 40.2815L20.8971 38.2931L21.7513 36.3263L22.7184 34.3745L23.8189 32.448L25.0482 30.5477L26.4018 28.6745L27.8922 26.833L29.512 25.0341L30.8164 23.7375L32.135 22.5227L33.4859 21.3985L34.8565 20.3598L36.2595 19.3998L37.6715 18.518L39.1158 17.7266L40.5853 17.0127L42.0654 16.3862L43.5609 15.8343L45.0806 15.3673L46.5994 14.9754L48.1256 14.6527L49.6607 14.4081L51.1977 14.2407L52.7347 14.1412L54.2755 14.1162L55.8099 14.1627L57.3285 14.266L58.8561 14.4475L60.3664 14.7048L61.8673 15.0154L63.3631 15.3903L64.84 15.8319L66.3011 16.3303L67.7497 16.8919L69.1708 17.5102L70.5741 18.1879L71.9543 18.9213L73.3042 19.7095L74.6284 20.5515L75.9212 21.4555L77.1867 22.4043L78.4184 23.4013L79.6145 24.4493L80.7797 25.5357L81.9011 26.6792L82.9822 27.8746L84.0189 29.1107L85.0093 30.3903L85.956 31.7153L86.8511 33.08L87.7047 34.4757L88.4991 35.9218L89.2346 37.4066L89.9195 38.924L90.5464 40.4846L91.1055 42.0738L91.5685 43.5958L92.0004 45.1678L92.3857 46.7952L92.7167 48.4605L92.9926 50.1591L93.1745 51.8839L93.2802 53.6153L93.2927 55.3494L93.1968 57.0677L92.9876 58.7546L92.6512 60.4245L92.1753 62.0208L91.7447 63.2055L91.2481 64.3081L90.7016 65.3398L90.1077 66.3144L89.4681 67.2291L88.7839 68.0767L88.0587 68.8637L87.2942 69.5872L86.4951 70.2466L85.6766 70.8485L84.8161 71.3851L83.9373 71.857L83.0372 72.274L82.1142 72.6271L81.1828 72.9184L80.2265 73.1484L79.2626 73.3211L78.2972 73.4448L77.3358 73.5115L76.3668 73.5209L75.4072 73.477L74.4498 73.3787L73.4974 73.2279L72.5597 73.0276L71.6322 72.7784L70.7161 72.4733L69.8219 72.1197L68.9479 71.7202L68.0932 71.2704L67.2562 70.761L66.4549 70.2007L65.6798 69.6028L64.9385 68.9567L64.2425 68.2743L63.5874 67.5446L62.9786 66.7715L62.4116 65.9556L61.8928 65.0936L61.4329 64.1929L61.0712 63.277L60.7237 62.2951L60.4284 61.2898L60.2048 60.2388L60.0473 59.1502L59.9639 58.0295L59.9456 56.8784L60.0078 55.6917L60.1384 54.521C60.1935 54.1681 60.3824 53.8496 60.6656 53.6318C60.9489 53.414 61.3047 53.3138 61.659 53.3519C62.0132 53.3901 62.3385 53.5637 62.5672 53.8366C62.7959 54.1095 62.9102 54.4607 62.8864 54.8169L62.7615 55.8998L62.7127 56.9081L62.7262 57.8841L62.7949 58.8268L62.9326 59.7219L63.118 60.5944L63.3539 61.4343L63.6396 62.2372L63.9767 63.0121L64.3572 63.7534L64.784 64.4512L65.2485 65.1235L65.7518 65.763L66.2932 66.3652L66.8726 66.9301L67.479 67.462L68.1163 67.9555L68.7787 68.4187L69.473 68.8363L70.1864 69.2153L70.9252 69.5522L71.6831 69.8505L72.4501 70.1072L73.2346 70.3163L74.0365 70.4776L74.8347 70.6044L75.6458 70.6843L76.4544 70.7224L77.2568 70.7124L78.0649 70.6544L78.8659 70.5555L79.6562 70.4092L80.4424 70.212L81.2235 69.9594L81.9672 69.6806L82.7097 69.3411L83.4186 68.9701L84.1208 68.5345L84.7991 68.0423L85.455 67.5024L86.0805 66.9093L86.6793 66.2577L87.2504 65.5547L87.7888 64.7848L88.2876 63.9634L88.7514 63.0895L89.1734 62.1505L89.5487 61.1588L89.9617 59.7661L90.2537 58.3247L90.4348 56.8258L90.52 55.2878L90.5054 53.716L90.4187 52.1337L90.251 50.5307L90.005 48.9487L89.6968 47.3873L89.3336 45.8592L88.9294 44.3784L88.4854 42.9656L87.9601 41.476L87.3812 40.0288L86.7418 38.6112L86.0538 37.2234L85.314 35.8754L84.5218 34.5626L83.6844 33.2861L82.8025 32.0504L81.8716 30.8563L80.9046 29.6969L79.8955 28.5919L78.8457 27.5224L77.7614 26.4966L76.6452 25.5164L75.4952 24.5844L74.3133 23.6981L73.1087 22.8558L71.8718 22.0708L70.6103 21.3325L69.3284 20.6518L68.0226 20.0223L66.6975 19.4433L65.3667 18.9121L64.008 18.4493L62.638 18.0425L61.2594 17.6936L59.8683 17.4079L58.4659 17.1782L57.0704 17.0012L55.6623 16.8992L54.2195 16.8809L52.8101 16.9058L51.3981 16.9969L49.9901 17.1507L48.5914 17.3708L47.1936 17.6635L45.8051 18.0226L44.4266 18.4526L43.059 18.9581L41.7014 19.5345L40.3555 20.191L39.0314 20.9186L37.7227 21.721L36.4347 22.6017L35.1656 23.5635L33.9173 24.6037L32.6977 25.7279L31.5042 26.9343L29.9682 28.6361L28.5747 30.3617L27.3101 32.1134L26.1617 33.8865L25.1406 35.6767L24.2403 37.4875L23.4434 39.3267L22.7707 41.1648L22.2088 43.0206L21.7491 44.8838L21.4156 46.7315L21.1719 48.61L21.0167 50.4984L20.9658 52.38L21.0136 54.2626L21.1584 56.1372L21.3856 58.0134L21.708 59.8843L22.1103 61.7433L22.5972 63.5894L23.1685 65.4228L23.8145 67.2404L24.5442 69.0407L25.3545 70.8055L26.223 72.5551L27.1397 74.2984L28.1509 75.9919L29.2263 77.6505L30.3613 79.2749L31.5534 80.8633L32.8017 82.4112L34.1035 83.9165L35.4661 85.3805L36.8661 86.7909L38.3037 88.1476L39.7978 89.4519L41.3284 90.7098L42.886 91.8948L44.4887 93.0155L46.1251 94.0878L47.8028 95.1011L49.5022 96.0378L51.2205 96.9078L52.9755 97.7196L54.7381 98.4409L56.5152 99.0844L58.3043 99.6484L60.1191 100.119L61.983 100.547L64.0677 100.978L66.3102 101.4L68.6821 101.785L71.1501 102.128L73.6738 102.415L76.2166 102.624L78.7298 102.783L81.2073 102.846L82.4025 102.843L83.5694 102.813L84.7053 102.752L85.8039 102.666L86.8544 102.545L86.9916 102.526L86.3752 101.991L85.675 101.405L84.9131 100.789L84.0894 100.141L83.2406 99.4834L82.3686 98.8137L80.5911 97.471L78.8321 96.1532L77.2012 94.9249L76.4491 94.3511L75.7603 93.8176L75.1413 93.3208L74.5962 92.8717L74.1342 92.4688L73.7908 92.1409C73.5416 91.8825 73.4026 91.5369 73.4031 91.1769C73.4037 90.8169 73.5438 90.4707 73.7939 90.2111C74.044 89.9515 74.3845 89.7989 74.7438 89.7854C75.103 89.7719 75.4529 89.8986 75.7198 90.1387L75.9886 90.4026L76.3785 90.7551L76.8827 91.1715L77.4681 91.6368L78.1382 92.1573L78.8716 92.718L80.4945 93.9407L82.2535 95.2585L84.0497 96.6143L84.9377 97.2952L85.8033 97.9683L86.6331 98.6244L87.4245 99.2616L88.1629 99.8778L88.8323 100.462L89.4401 101.015L89.9674 101.523L90.3951 101.998L90.6059 102.265L90.7852 102.526L90.945 102.81L91.0816 103.149L91.1612 103.604L90.9819 104.429L90.0031 106.193L88.2624 107.971L86.2145 109.615L85.1371 110.399L84.0814 111.147L83.0702 111.853L82.5967 112.189L82.1462 112.509L81.7287 112.816L81.3432 113.106L81.0016 113.378L80.6865 113.641C80.4036 113.864 80.0454 113.969 79.6881 113.932C79.3308 113.895 79.0024 113.72 78.7728 113.444C78.5433 113.168 78.4305 112.813 78.4586 112.454C78.4867 112.095 78.6534 111.761 78.9233 111.522L79.2708 111.23L79.6686 110.917L80.0929 110.594L80.5399 110.268L81.0214 109.937L81.5077 109.595L82.5144 108.889L83.5401 108.144L84.5439 107.408L86.4374 105.9L87.0401 105.311L86.0506 105.418L84.8713 105.512L83.6656 105.576L82.4422 105.619L81.17 105.624L78.6182 105.565L76.0079 105.413L73.3879 105.179L70.8054 104.891L68.2697 104.536L65.8077 104.132L63.4981 103.715L61.3557 103.276L59.4154 102.826L57.5027 102.319Z" fill="white"/>
</g>
<defs>
<clipPath id="clip0_799_3878">
<rect width="79.456" height="96.5801" fill="white" transform="matrix(0.573042 -0.819526 -0.819526 -0.573042 79.6494 121)"/>
</clipPath>
</defs>
</svg>
