<svg width="23" height="23" viewBox="0 0 23 23" fill="none" xmlns="http://www.w3.org/2000/svg">
<path fill-rule="evenodd" clip-rule="evenodd" d="M2.875 5.75002C2.875 5.22075 3.30406 4.79169 3.83333 4.79169H19.1667C19.696 4.79169 20.125 5.22075 20.125 5.75002C20.125 6.27929 19.696 6.70835 19.1667 6.70835H3.83333C3.30406 6.70835 2.875 6.27929 2.875 5.75002ZM2.875 11.5C2.875 10.9707 3.30406 10.5417 3.83333 10.5417H13.4167C13.946 10.5417 14.375 10.9707 14.375 11.5C14.375 12.0293 13.946 12.4584 13.4167 12.4584H3.83333C3.30406 12.4584 2.875 12.0293 2.875 11.5ZM2.875 17.25C2.875 16.7207 3.30406 16.2917 3.83333 16.2917H8.625C9.15427 16.2917 9.58333 16.7207 9.58333 17.25C9.58333 17.7793 9.15427 18.2084 8.625 18.2084H3.83333C3.30406 18.2084 2.875 17.7793 2.875 17.25Z" fill="#F3F3F3"/>
</svg>
