<svg width="349" height="350" viewBox="0 0 349 350" fill="none" xmlns="http://www.w3.org/2000/svg">
<path d="M201.986 175C201.986 190.226 189.679 202.566 174.5 202.566C159.321 202.566 147.014 190.226 147.014 175C147.014 159.774 159.321 147.434 174.5 147.434C189.679 147.434 201.986 159.774 201.986 175Z" stroke="#4B4B4B"/>
<path d="M236.557 175C236.557 209.373 208.772 237.236 174.5 237.236C140.228 237.236 112.443 209.373 112.443 175C112.443 140.627 140.228 112.764 174.5 112.764C208.772 112.764 236.557 140.627 236.557 175Z" stroke="#4B4B4B"/>
<path d="M269.481 175C269.481 227.609 226.955 270.255 174.5 270.255C122.045 270.255 79.5189 227.609 79.5189 175C79.5189 122.391 122.045 79.7453 174.5 79.7453C226.955 79.7453 269.481 122.391 269.481 175Z" stroke="#4B4B4B"/>
<path d="M310.637 175C310.637 250.404 249.685 311.528 174.5 311.528C99.315 311.528 38.3632 250.404 38.3632 175C38.3632 99.5962 99.315 38.4717 174.5 38.4717C249.685 38.4717 310.637 99.5962 310.637 175Z" stroke="#4B4B4B"/>
<path d="M348.5 175C348.5 271.375 270.596 349.5 174.5 349.5C78.4038 349.5 0.5 271.375 0.5 175C0.5 78.625 78.4038 0.5 174.5 0.5C270.596 0.5 348.5 78.625 348.5 175Z" stroke="#4B4B4B"/>
</svg>
