<svg width="24" height="24" viewBox="0 0 24 24" fill="none" xmlns="http://www.w3.org/2000/svg">
<g clip-path="url(#clip0_2382_312)">
<path d="M22.0436 9.73286C22.4977 10.1713 22.5103 10.8948 22.0718 11.3489C21.6334 11.8029 20.9099 11.8155 20.4558 11.3771L14.2195 5.35478L14.5099 21.9881C14.5209 22.6191 14.0182 23.1397 13.3871 23.1507C12.7561 23.1617 12.2355 22.659 12.2245 22.028L11.9342 5.39462L5.91183 11.6309C5.47336 12.085 4.74986 12.0976 4.29583 11.6591C3.8418 11.2207 3.82915 10.4972 4.26762 10.0432L12.2066 1.82213C12.645 1.36809 13.3685 1.35546 13.8226 1.79392L22.0436 9.73286Z" fill="#DDDDDD"/>
</g>
<defs>
<clipPath id="clip0_2382_312">
<rect width="24" height="24" fill="white"/>
</clipPath>
</defs>
</svg>
